<svg width="60" height="64" viewBox="0 0 60 64" fill="none" xmlns="http://www.w3.org/2000/svg">
<rect width="60" height="64" fill="#CA151E"/>
<path d="M34.8284 25.9803V25.9873C34.6892 25.8987 34.4037 25.8551 34.0452 25.8551V34.886C34.55 34.886 34.865 34.7693 34.9831 34.571C35.0998 34.3812 35.1589 33.8173 35.1589 32.9159V27.5398C35.1589 26.9238 35.1519 26.5287 35.0998 26.3599C35.0562 26.1771 34.9747 26.052 34.8355 25.9788L34.8284 25.9803ZM50.0258 7.99994H11.0389C10.2551 8.04534 9.5146 8.37427 8.95546 8.92539C8.39631 9.47652 8.05672 10.2122 8 10.9953V49.9596C8.10969 51.6007 9.33312 52.8523 10.9152 52.9915C10.9442 52.9971 10.9737 52.9995 11.0037 52.9985H50.0863C50.8826 52.9186 51.6212 52.5466 52.1595 51.9543C52.6979 51.3619 52.9978 50.5913 53.0014 49.7909V11.2062C52.9973 10.3962 52.6895 9.61726 52.1388 9.02332C51.5881 8.42937 50.8345 8.06368 50.0272 7.99854L50.0258 7.99994ZM16.9873 37.2963H13.4127V23.4898H16.9873V37.2963ZM29.247 37.2963H26.1336V27.9729L24.8736 37.2893H22.6475L21.3369 28.1782L21.3228 37.2893H18.2023V23.4898H22.8233C22.985 24.4643 23.1242 25.4529 23.255 26.4415L23.7598 29.9431L24.5952 23.4898H29.2456L29.247 37.2963ZM38.5789 33.2098C38.5789 34.4332 38.4988 35.2601 38.3806 35.6848C38.2909 36.0676 38.0774 36.4102 37.7731 36.6593C37.4664 36.9156 37.0979 37.0872 36.7044 37.1571C36.2867 37.2373 35.6356 37.2963 34.7933 37.2963L34.7863 37.2893H30.4648V23.4898H33.1381C34.8523 23.4898 35.855 23.5784 36.4555 23.7246C37.063 23.8934 37.5327 24.1493 37.8547 24.5163C38.1627 24.8538 38.368 25.2701 38.4411 25.7243C38.5348 26.1649 38.5813 27.0415 38.5803 28.354L38.5789 33.2098ZM47.8517 34.0957C47.8517 34.9381 47.7631 35.5315 47.683 35.9562C47.5662 36.3738 47.3173 36.7099 46.9208 37.0179C46.4961 37.3329 46.0194 37.4721 45.4555 37.4721C45.0448 37.4721 44.5175 37.3554 44.1814 37.2162C43.8071 37.0168 43.4778 36.7425 43.2139 36.4104L43.0016 37.2963H39.7784V23.4898L39.7419 23.4828H43.1183V27.9799C43.3958 27.6509 43.7131 27.402 44.0703 27.2332C44.4843 27.0747 44.9236 26.9927 45.3669 26.9913C45.7916 26.9913 46.2092 27.0574 46.6044 27.2107C46.9264 27.3429 47.2048 27.5553 47.4242 27.8267C47.593 28.0615 47.7027 28.3315 47.7617 28.6184C47.8123 28.8743 47.8419 29.4242 47.8419 30.244V34.0971L47.8517 34.0957ZM43.7722 29.0065C43.5528 29.0065 43.4136 29.0867 43.3545 29.2329C43.2955 29.3862 43.2448 29.7743 43.2448 30.4043V34.0521C43.2448 34.6596 43.2955 35.0562 43.3545 35.2235C43.392 35.303 43.4526 35.3693 43.5284 35.4137C43.6042 35.4581 43.6916 35.4786 43.7792 35.4724C43.9986 35.4724 44.2841 35.3838 44.3431 35.2081C44.3956 35.0262 44.4223 34.6062 44.4233 33.9481L44.4823 33.941V30.3959C44.4823 29.832 44.4528 29.4438 44.3727 29.2681C44.2841 29.0782 44.007 29.0037 43.7792 29.0037L43.7722 29.0065Z" fill="white"/>
</svg>
