<svg width="60" height="64" viewBox="0 0 60 64" fill="none" xmlns="http://www.w3.org/2000/svg">
<rect width="60" height="64" fill="#CA151E"/>
<path d="M23.2354 22.1247V39.627L18.8542 39.6208V28.7823L14.625 33.7777L10.4812 28.6701L10.4396 39.652H6.00208L6 22.1247H10.5896L14.475 27.413L18.6729 22.1226L23.2354 22.1247ZM41.2104 26.4239L41.2625 39.5875H36.3354L36.3187 33.6218H30.4854C30.6312 34.6587 30.9229 36.2525 31.3542 37.3184C31.6771 38.1101 31.975 38.879 32.5687 39.6623L29.0167 42C28.2896 40.6784 27.7208 39.2218 27.1875 37.6738C26.654 36.2124 26.2994 34.6921 26.1312 33.146C25.9542 31.5875 25.9292 30.0894 26.3542 28.5496C26.7711 27.0526 27.6107 25.7067 28.7729 24.6722C29.425 24.0634 30.3333 23.6332 31.0646 23.2447C31.7958 22.8561 32.6125 22.6961 33.3708 22.4987C34.1862 22.3049 35.016 22.1777 35.8521 22.1184C36.6812 22.0478 38.1583 21.9813 40.8312 22.0603L41.9667 25.6945H36.2292C34.9937 25.7112 34.4 25.6966 33.4354 26.1288C32.6706 26.4905 32.0188 27.0528 31.5498 27.7556C31.0808 28.4584 30.8122 29.2751 30.7729 30.1184L36.3208 30.187L36.4 26.426L41.2104 26.4239ZM49.5271 22.0623V35.8327L56 35.8992L55.1042 39.5875H45.0896V22L49.5271 22.0623Z" fill="white"/>
</svg>
