<svg width="62" height="62" viewBox="0 0 62 62" fill="none" xmlns="http://www.w3.org/2000/svg">
<path d="M0 0V62H62V0H0ZM49.6 21.7V22.8625C49.6 35.65 39.9125 49.9875 22.475 49.9875C17.05 49.9875 12.0125 48.4375 7.75 45.725H10.075C14.725 45.725 18.6 44.175 22.0875 41.4625C17.825 41.4625 14.3375 38.75 13.175 34.875H15.1125C15.8875 34.875 16.6625 34.875 17.4375 34.4875C13.175 33.7125 9.6875 29.8375 9.6875 25.1875C10.85 25.9625 12.4 26.35 13.95 26.35C11.2375 24.8 9.6875 21.7 9.6875 18.6C9.6875 16.6625 10.075 15.1125 10.85 13.95C15.5 19.7625 22.8625 23.25 30.6125 23.6375C30.6125 22.8625 30.225 22.0875 30.225 21.3125C30.225 15.8875 34.4875 11.625 39.9125 11.625C42.625 11.625 44.95 12.7875 46.8875 14.725C49.2125 14.3375 51.15 13.5625 53.0875 12.4C52.3125 14.725 50.7625 16.6625 48.825 17.825C50.7625 17.4375 52.7 17.05 54.25 16.275C53.0875 18.6 51.5375 20.15 49.6 21.7Z" fill="#CA151E"/>
</svg>
