<?xml version="1.0" encoding="UTF-8"?>
<svg id="Layer_3" data-name="Layer 3" xmlns="http://www.w3.org/2000/svg" viewBox="0 0 652 834">
  <defs>
    <style>
      .cls-1 {
        fill: #fff;
      }
    </style>
  </defs>
  <path class="cls-1" d="M0-.1C81.12-.07,162.23-.03,243.35,0c8.04,5.82,17.29,13.5,26.61,23.44,11.26,12.01,19.34,23.81,25.04,33.57h357v777H0V-.1Z"/>
  <path d="M49.24,57v-27.46c0-1.31.32-2.5.96-3.55.64-1.09,1.5-1.95,2.59-2.59,1.09-.64,2.27-.96,3.55-.96h20.3c1.31,0,2.5.32,3.55.96,1.09.64,1.95,1.5,2.59,2.59.67,1.06,1.01,2.24,1.01,3.55v27.46h-7.54v-11.14h-19.58v11.14h-7.44ZM56.68,38.38h19.58v-8.45h-19.58v8.45ZM88.22,57V20.04h7.34v9.12h13.92c1.28,0,2.45.32,3.5.96,1.06.64,1.89,1.49,2.5,2.54.64,1.06.96,2.21.96,3.46v13.92c0,1.25-.32,2.4-.96,3.46-.61,1.06-1.44,1.9-2.5,2.54s-2.22.96-3.5.96h-21.26ZM95.56,49.66h13.54v-13.15h-13.54v13.15ZM126.09,57c-1.25,0-2.4-.32-3.46-.96-1.06-.64-1.9-1.49-2.54-2.54s-.96-2.21-.96-3.46v-13.92c0-1.25.32-2.4.96-3.46.64-1.06,1.49-1.9,2.54-2.54,1.06-.64,2.21-.96,3.46-.96h14.3c1.28,0,2.45.32,3.5.96,1.06.64,1.89,1.49,2.5,2.54.64,1.06.96,2.21.96,3.46v13.92c0,1.25-.32,2.4-.96,3.46-.61,1.06-1.44,1.9-2.5,2.54s-2.22.96-3.5.96h-14.3ZM126.47,49.66h13.54v-13.15h-13.54v13.15ZM157.15,57c-1.28,0-2.45-.32-3.5-.96s-1.9-1.49-2.54-2.54c-.61-1.06-.91-2.21-.91-3.46v-20.88h7.34v20.5h13.54v-20.5h7.34v20.88c0,1.25-.32,2.4-.96,3.46-.61,1.06-1.44,1.9-2.5,2.54s-2.22.96-3.5.96h-14.3ZM188.44,57c-1.28,0-2.45-.32-3.5-.96s-1.9-1.49-2.54-2.54c-.64-1.06-.96-2.21-.96-3.46v-29.14h7.34v8.26h10.32v7.34h-10.32v13.15h10.32v7.34h-10.66Z"/>
</svg>